<svg width="40" height="40" viewBox="0 0 40 40" fill="none" xmlns="http://www.w3.org/2000/svg">
<g clip-path="url(#clip0_86_356)">
<path d="M39.2033 10.3091C38.9772 9.45811 38.5315 8.68146 37.9109 8.05685C37.2902 7.43224 36.5165 6.98159 35.6669 6.75C32.5397 5.90909 20.0397 5.90909 20.0397 5.90909C20.0397 5.90909 7.53967 5.90909 4.4124 6.75C3.56289 6.98159 2.7891 7.43224 2.16849 8.05685C1.54787 8.68146 1.10218 9.45811 0.876037 10.3091C0.039673 13.45 0.0396729 20 0.0396729 20C0.0396729 20 0.039673 26.55 0.876037 29.6909C1.10218 30.5419 1.54787 31.3185 2.16849 31.9431C2.7891 32.5677 3.56289 33.0184 4.4124 33.25C7.53967 34.0909 20.0397 34.0909 20.0397 34.0909C20.0397 34.0909 32.5397 34.0909 35.6669 33.25C36.5165 33.0184 37.2902 32.5677 37.9109 31.9431C38.5315 31.3185 38.9772 30.5419 39.2033 29.6909C40.0397 26.55 40.0397 20 40.0397 20C40.0397 20 40.0397 13.45 39.2033 10.3091Z" fill="#FF0302"/>
<path d="M15.9488 25.9478V14.0523L26.4033 20.0001L15.9488 25.9478Z" fill="#FEFEFE"/>
</g>
<defs>
<clipPath id="clip0_86_356">
<rect width="40" height="40" fill="white"/>
</clipPath>
</defs>
</svg>
