<svg width="340" height="70" viewBox="0 0 340 70" fill="none" xmlns="http://www.w3.org/2000/svg">
<rect width="340" height="70" rx="6" fill="#7289DA"/>
<path fill-rule="evenodd" clip-rule="evenodd" d="M46.0929 18.2197L46.5929 19.4072H51.9365H57.2801L57.8113 18.1885C58.3113 17.001 58.3426 16.9698 59.655 17.1885C62.0925 17.5947 67.8423 19.6572 68.5298 20.4072C68.8735 20.7822 69.9672 22.6259 70.9047 24.4696C74.0296 30.5006 75.1858 35.0005 75.4358 42.0003L75.6233 46.4377L74.5296 47.4689C72.8734 49.0001 64.8424 53 63.3424 53C63.0299 53 60.8425 49.5001 60.8425 49.0001C60.8425 48.8126 61.6862 48.2814 62.7175 47.8126C64.1862 47.1564 64.5299 46.8752 64.2487 46.5627C63.9674 46.2189 63.6237 46.2814 62.3112 46.8127C56.2489 49.2814 49.2803 49.4688 42.9055 47.3439C40.8431 46.6564 39.7806 46.4377 39.5619 46.6564C39.3431 46.8752 39.8431 47.2502 41.1243 47.8439C42.1868 48.3439 43.0305 48.8126 43.0305 48.9376C43.0305 49.1251 40.9368 52.6875 40.6868 52.9375C40.6243 53 39.5619 52.6875 38.2806 52.2188C35.187 51.0938 30.6559 48.6876 29.3434 47.4689L28.2497 46.4377L28.4372 42.0003C28.7184 34.1568 30.4059 28.4382 34.4683 21.6884C35.4682 20.0322 35.6557 19.8759 37.9057 19.0635C40.9368 17.9697 43.9367 17.126 44.843 17.0948C45.4054 17.0635 45.6867 17.3448 46.0929 18.2197ZM42.5618 32.5318C39.7181 34.0005 39.1556 38.0317 41.5306 40.2191C43.5305 42.1253 46.3117 41.5316 47.6554 38.9379C48.9053 36.5005 47.9054 33.5318 45.5304 32.5631C43.968 31.9381 43.7492 31.9381 42.5618 32.5318ZM55.6552 37.5317C55.3739 35.6255 56.4676 33.4068 58.0301 32.6256C59.3738 31.9381 59.905 31.9381 61.3113 32.5006C62.8425 33.1568 63.6549 34.6255 63.6549 36.7505C63.6549 38.9066 62.8425 40.3441 61.2488 41.0003C58.8113 42.0316 56.0927 40.3441 55.6552 37.5317Z" fill="white"/>
<path d="M109.52 36.1357H105.502L105.48 33.9229H108.854C109.448 33.9229 109.935 33.8477 110.314 33.6973C110.694 33.5397 110.977 33.3141 111.163 33.0205C111.356 32.7197 111.453 32.3545 111.453 31.9248C111.453 31.4378 111.36 31.0439 111.174 30.7432C110.995 30.4424 110.712 30.224 110.325 30.0879C109.946 29.9518 109.455 29.8838 108.854 29.8838H106.619V43H103.396V27.3594H108.854C109.763 27.3594 110.576 27.4453 111.292 27.6172C112.015 27.7891 112.628 28.0505 113.129 28.4014C113.63 28.7523 114.013 29.1963 114.278 29.7334C114.543 30.2633 114.676 30.8936 114.676 31.624C114.676 32.2686 114.529 32.863 114.235 33.4072C113.949 33.9515 113.494 34.3955 112.871 34.7393C112.255 35.083 111.45 35.2728 110.454 35.3086L109.52 36.1357ZM109.38 43H104.621L105.878 40.4863H109.38C109.946 40.4863 110.408 40.3968 110.766 40.2178C111.124 40.0316 111.389 39.7809 111.561 39.4658C111.732 39.1507 111.818 38.7891 111.818 38.3809C111.818 37.9225 111.74 37.5251 111.582 37.1885C111.432 36.8519 111.188 36.5941 110.852 36.415C110.515 36.2288 110.071 36.1357 109.52 36.1357H106.415L106.437 33.9229H110.304L111.045 34.793C111.997 34.7786 112.764 34.9469 113.344 35.2979C113.931 35.6416 114.357 36.0892 114.622 36.6406C114.894 37.1921 115.03 37.7829 115.03 38.4131C115.03 39.4157 114.812 40.2607 114.375 40.9482C113.938 41.6286 113.297 42.1406 112.452 42.4844C111.614 42.8281 110.59 43 109.38 43ZM116.76 37.3066V37.0811C116.76 36.2288 116.882 35.4447 117.125 34.7285C117.368 34.0052 117.723 33.3786 118.188 32.8486C118.654 32.3187 119.227 31.9069 119.907 31.6133C120.588 31.3125 121.368 31.1621 122.249 31.1621C123.13 31.1621 123.914 31.3125 124.602 31.6133C125.289 31.9069 125.866 32.3187 126.331 32.8486C126.804 33.3786 127.162 34.0052 127.405 34.7285C127.649 35.4447 127.771 36.2288 127.771 37.0811V37.3066C127.771 38.1517 127.649 38.9359 127.405 39.6592C127.162 40.3753 126.804 41.002 126.331 41.5391C125.866 42.069 125.293 42.4808 124.612 42.7744C123.932 43.068 123.151 43.2148 122.271 43.2148C121.39 43.2148 120.605 43.068 119.918 42.7744C119.238 42.4808 118.661 42.069 118.188 41.5391C117.723 41.002 117.368 40.3753 117.125 39.6592C116.882 38.9359 116.76 38.1517 116.76 37.3066ZM119.854 37.0811V37.3066C119.854 37.7936 119.896 38.2484 119.982 38.6709C120.068 39.0934 120.204 39.4658 120.391 39.7881C120.584 40.1032 120.835 40.3503 121.143 40.5293C121.451 40.7083 121.826 40.7979 122.271 40.7979C122.7 40.7979 123.069 40.7083 123.377 40.5293C123.685 40.3503 123.932 40.1032 124.118 39.7881C124.304 39.4658 124.44 39.0934 124.526 38.6709C124.619 38.2484 124.666 37.7936 124.666 37.3066V37.0811C124.666 36.6084 124.619 36.1644 124.526 35.749C124.44 35.3265 124.301 34.9541 124.107 34.6318C123.921 34.3024 123.674 34.0446 123.366 33.8584C123.058 33.6722 122.686 33.5791 122.249 33.5791C121.812 33.5791 121.44 33.6722 121.132 33.8584C120.831 34.0446 120.584 34.3024 120.391 34.6318C120.204 34.9541 120.068 35.3265 119.982 35.749C119.896 36.1644 119.854 36.6084 119.854 37.0811ZM132.755 38.6816L136.654 31.377H139.748V43H136.654V35.6846L132.755 43H129.661V31.377H132.755V38.6816ZM136.3 26.7041H138.502C138.502 27.32 138.348 27.8678 138.04 28.3477C137.739 28.8203 137.31 29.1927 136.751 29.4648C136.192 29.7298 135.534 29.8623 134.774 29.8623C133.621 29.8623 132.708 29.5687 132.035 28.9814C131.369 28.3942 131.036 27.6351 131.036 26.7041H133.228C133.228 27.0765 133.342 27.4095 133.571 27.7031C133.808 27.9967 134.209 28.1436 134.774 28.1436C135.333 28.1436 135.727 27.9967 135.956 27.7031C136.185 27.4095 136.3 27.0765 136.3 26.7041ZM148.052 31.377V43H144.947V31.377H148.052ZM151.79 31.377V33.7725H141.263V31.377H151.79ZM156.452 38.6816L160.352 31.377H163.445V43H160.352V35.6846L156.452 43H153.358V31.377H156.452V38.6816ZM181.105 31.377V43H178.001V31.377H181.105ZM179.645 36.3506V38.7676C179.408 38.8893 179.104 39.0039 178.731 39.1113C178.359 39.2188 177.965 39.3047 177.55 39.3691C177.142 39.4264 176.762 39.4551 176.411 39.4551C175.294 39.4551 174.334 39.3011 173.532 38.9932C172.737 38.6852 172.125 38.2018 171.695 37.543C171.266 36.8841 171.051 36.0391 171.051 35.0078V31.3662H174.145V35.0078C174.145 35.5306 174.223 35.9424 174.381 36.2432C174.538 36.5368 174.782 36.7445 175.111 36.8662C175.448 36.9808 175.881 37.0381 176.411 37.0381C176.784 37.0381 177.145 37.0094 177.496 36.9521C177.847 36.8949 178.198 36.8161 178.549 36.7158C178.9 36.6156 179.265 36.4938 179.645 36.3506ZM188.84 43.2148C187.938 43.2148 187.128 43.0716 186.412 42.7852C185.696 42.4915 185.087 42.0869 184.586 41.5713C184.092 41.0557 183.712 40.4577 183.447 39.7773C183.182 39.0898 183.05 38.3594 183.05 37.5859V37.1562C183.05 36.2754 183.175 35.4697 183.426 34.7393C183.676 34.0088 184.035 33.375 184.5 32.8379C184.973 32.3008 185.546 31.889 186.219 31.6025C186.892 31.3089 187.651 31.1621 188.496 31.1621C189.32 31.1621 190.05 31.2982 190.688 31.5703C191.325 31.8424 191.858 32.2292 192.288 32.7305C192.725 33.2318 193.054 33.8333 193.276 34.5352C193.498 35.2298 193.609 36.0033 193.609 36.8555V38.1445H184.371V36.082H190.569V35.8457C190.569 35.416 190.491 35.0329 190.333 34.6963C190.183 34.3525 189.953 34.0804 189.646 33.8799C189.338 33.6794 188.944 33.5791 188.464 33.5791C188.056 33.5791 187.705 33.6686 187.411 33.8477C187.118 34.0267 186.878 34.2773 186.691 34.5996C186.512 34.9219 186.376 35.3014 186.283 35.7383C186.197 36.168 186.154 36.6406 186.154 37.1562V37.5859C186.154 38.0514 186.219 38.4811 186.348 38.875C186.484 39.2689 186.674 39.609 186.917 39.8955C187.168 40.182 187.468 40.404 187.819 40.5615C188.177 40.7191 188.582 40.7979 189.033 40.7979C189.592 40.7979 190.111 40.6904 190.591 40.4756C191.078 40.2536 191.497 39.9206 191.848 39.4766L193.352 41.1094C193.108 41.4603 192.775 41.7969 192.353 42.1191C191.937 42.4414 191.436 42.7064 190.849 42.9141C190.261 43.1146 189.592 43.2148 188.84 43.2148ZM198.465 33.6113V47.4688H195.371V31.377H198.239L198.465 33.6113ZM205.823 37.0596V37.2852C205.823 38.1302 205.723 38.9144 205.522 39.6377C205.329 40.361 205.043 40.9912 204.663 41.5283C204.284 42.0583 203.811 42.4736 203.245 42.7744C202.687 43.068 202.042 43.2148 201.312 43.2148C200.603 43.2148 199.987 43.0716 199.464 42.7852C198.941 42.4987 198.501 42.0977 198.143 41.582C197.792 41.0592 197.509 40.4541 197.294 39.7666C197.079 39.0791 196.914 38.3415 196.8 37.5537V36.9629C196.914 36.1178 197.079 35.3444 197.294 34.6426C197.509 33.9336 197.792 33.3213 198.143 32.8057C198.501 32.2829 198.938 31.8783 199.453 31.5918C199.976 31.3053 200.588 31.1621 201.29 31.1621C202.028 31.1621 202.676 31.3018 203.234 31.5811C203.8 31.8604 204.273 32.2614 204.652 32.7842C205.039 33.307 205.329 33.93 205.522 34.6533C205.723 35.3766 205.823 36.1787 205.823 37.0596ZM202.719 37.2852V37.0596C202.719 36.5654 202.676 36.1107 202.59 35.6953C202.511 35.2728 202.382 34.904 202.203 34.5889C202.031 34.2738 201.802 34.0303 201.516 33.8584C201.236 33.6794 200.896 33.5898 200.495 33.5898C200.073 33.5898 199.711 33.6579 199.41 33.7939C199.117 33.93 198.877 34.127 198.69 34.3848C198.504 34.6426 198.365 34.9505 198.271 35.3086C198.178 35.6667 198.121 36.0713 198.1 36.5225V38.0156C198.135 38.5456 198.236 39.0218 198.4 39.4443C198.565 39.8597 198.819 40.1891 199.163 40.4326C199.507 40.6761 199.958 40.7979 200.517 40.7979C200.925 40.7979 201.269 40.7083 201.548 40.5293C201.827 40.3431 202.053 40.0889 202.225 39.7666C202.404 39.4443 202.529 39.0719 202.601 38.6494C202.679 38.2269 202.719 37.7721 202.719 37.2852ZM213.096 43.2148C212.193 43.2148 211.384 43.0716 210.668 42.7852C209.952 42.4915 209.343 42.0869 208.842 41.5713C208.348 41.0557 207.968 40.4577 207.703 39.7773C207.438 39.0898 207.306 38.3594 207.306 37.5859V37.1562C207.306 36.2754 207.431 35.4697 207.682 34.7393C207.932 34.0088 208.29 33.375 208.756 32.8379C209.229 32.3008 209.801 31.889 210.475 31.6025C211.148 31.3089 211.907 31.1621 212.752 31.1621C213.576 31.1621 214.306 31.2982 214.943 31.5703C215.581 31.8424 216.114 32.2292 216.544 32.7305C216.981 33.2318 217.31 33.8333 217.532 34.5352C217.754 35.2298 217.865 36.0033 217.865 36.8555V38.1445H208.627V36.082H214.825V35.8457C214.825 35.416 214.746 35.0329 214.589 34.6963C214.438 34.3525 214.209 34.0804 213.901 33.8799C213.593 33.6794 213.2 33.5791 212.72 33.5791C212.312 33.5791 211.961 33.6686 211.667 33.8477C211.373 34.0267 211.133 34.2773 210.947 34.5996C210.768 34.9219 210.632 35.3014 210.539 35.7383C210.453 36.168 210.41 36.6406 210.41 37.1562V37.5859C210.41 38.0514 210.475 38.4811 210.604 38.875C210.74 39.2689 210.929 39.609 211.173 39.8955C211.424 40.182 211.724 40.404 212.075 40.5615C212.433 40.7191 212.838 40.7979 213.289 40.7979C213.848 40.7979 214.367 40.6904 214.847 40.4756C215.334 40.2536 215.753 39.9206 216.104 39.4766L217.607 41.1094C217.364 41.4603 217.031 41.7969 216.608 42.1191C216.193 42.4414 215.692 42.7064 215.104 42.9141C214.517 43.1146 213.848 43.2148 213.096 43.2148ZM224.805 37.457H222.506V36.0713H224.149C224.536 36.0713 224.844 36.0176 225.073 35.9102C225.31 35.8027 225.478 35.6523 225.578 35.459C225.686 35.2585 225.739 35.0329 225.739 34.7822C225.739 34.5602 225.693 34.349 225.6 34.1484C225.514 33.9408 225.356 33.7725 225.127 33.6436C224.905 33.5075 224.59 33.4395 224.182 33.4395C223.845 33.4395 223.544 33.4896 223.279 33.5898C223.021 33.6901 222.817 33.8369 222.667 34.0303C222.524 34.2165 222.452 34.4421 222.452 34.707H219.348C219.348 33.9694 219.559 33.3392 219.981 32.8164C220.404 32.2865 220.97 31.8818 221.679 31.6025C222.388 31.3161 223.165 31.1729 224.01 31.1729C224.747 31.1729 225.413 31.248 226.008 31.3984C226.602 31.5417 227.111 31.7565 227.533 32.043C227.956 32.3294 228.278 32.6839 228.5 33.1064C228.729 33.5218 228.844 34.0052 228.844 34.5566C228.844 34.9505 228.751 35.3229 228.564 35.6738C228.378 36.0247 228.11 36.3363 227.759 36.6084C227.408 36.8734 226.982 37.0811 226.48 37.2314C225.986 37.3818 225.428 37.457 224.805 37.457ZM222.506 36.6836H224.805C225.499 36.6836 226.108 36.7516 226.631 36.8877C227.161 37.0166 227.605 37.21 227.963 37.4678C228.321 37.7256 228.59 38.0443 228.769 38.4238C228.955 38.7962 229.048 39.2259 229.048 39.7129C229.048 40.2643 228.926 40.7585 228.683 41.1953C228.439 41.625 228.092 41.9902 227.641 42.291C227.189 42.5918 226.656 42.821 226.04 42.9785C225.424 43.1361 224.747 43.2148 224.01 43.2148C223.222 43.2148 222.456 43.0859 221.711 42.8281C220.966 42.5703 220.354 42.1729 219.874 41.6357C219.401 41.0986 219.165 40.4076 219.165 39.5625H222.27C222.27 39.806 222.341 40.0352 222.484 40.25C222.628 40.4648 222.842 40.6367 223.129 40.7656C223.415 40.8874 223.77 40.9482 224.192 40.9482C224.615 40.9482 224.955 40.8802 225.213 40.7441C225.471 40.6081 225.657 40.429 225.771 40.207C225.893 39.9779 225.954 39.7415 225.954 39.498C225.954 39.1543 225.886 38.875 225.75 38.6602C225.621 38.4453 225.421 38.2878 225.148 38.1875C224.883 38.0872 224.55 38.0371 224.149 38.0371H222.506V36.6836ZM241.423 43H238.018L238.039 40.4863H241.423C242.268 40.4863 242.98 40.2965 243.561 39.917C244.141 39.5303 244.577 38.9681 244.871 38.2305C245.172 37.4928 245.322 36.6012 245.322 35.5557V34.793C245.322 33.9909 245.236 33.2855 245.064 32.6768C244.9 32.068 244.653 31.556 244.323 31.1406C243.994 30.7253 243.589 30.4137 243.109 30.2061C242.63 29.9912 242.078 29.8838 241.455 29.8838H237.953V27.3594H241.455C242.501 27.3594 243.457 27.5384 244.323 27.8965C245.197 28.2474 245.952 28.7523 246.59 29.4111C247.227 30.07 247.718 30.8577 248.062 31.7744C248.412 32.6839 248.588 33.6973 248.588 34.8145V35.5557C248.588 36.6657 248.412 37.679 248.062 38.5957C247.718 39.5124 247.227 40.3001 246.59 40.959C245.96 41.6107 245.204 42.1156 244.323 42.4736C243.45 42.8245 242.483 43 241.423 43ZM239.844 27.3594V43H236.621V27.3594H239.844ZM254.002 31.377V43H250.897V31.377H254.002ZM250.704 28.3477C250.704 27.8965 250.862 27.5241 251.177 27.2305C251.492 26.9368 251.914 26.79 252.444 26.79C252.967 26.79 253.386 26.9368 253.701 27.2305C254.023 27.5241 254.185 27.8965 254.185 28.3477C254.185 28.7988 254.023 29.1712 253.701 29.4648C253.386 29.7585 252.967 29.9053 252.444 29.9053C251.914 29.9053 251.492 29.7585 251.177 29.4648C250.862 29.1712 250.704 28.7988 250.704 28.3477ZM262.843 39.7881C262.843 39.5661 262.778 39.3656 262.649 39.1865C262.521 39.0075 262.281 38.8428 261.93 38.6924C261.586 38.5348 261.088 38.3916 260.437 38.2627C259.849 38.1338 259.301 37.9727 258.793 37.7793C258.292 37.5788 257.855 37.3389 257.482 37.0596C257.117 36.7803 256.831 36.4508 256.623 36.0713C256.415 35.6846 256.312 35.2441 256.312 34.75C256.312 34.263 256.415 33.8047 256.623 33.375C256.838 32.9453 257.142 32.5658 257.536 32.2363C257.937 31.8997 258.424 31.6383 258.997 31.4521C259.577 31.2588 260.229 31.1621 260.952 31.1621C261.962 31.1621 262.828 31.3232 263.552 31.6455C264.282 31.9678 264.841 32.4118 265.228 32.9775C265.621 33.5361 265.818 34.1735 265.818 34.8896H262.725C262.725 34.5889 262.66 34.3203 262.531 34.084C262.41 33.8405 262.216 33.6507 261.951 33.5146C261.693 33.3714 261.357 33.2998 260.941 33.2998C260.598 33.2998 260.3 33.3607 260.05 33.4824C259.799 33.597 259.606 33.7546 259.47 33.9551C259.341 34.1484 259.276 34.3633 259.276 34.5996C259.276 34.7786 259.312 34.9398 259.384 35.083C259.463 35.2191 259.588 35.3444 259.76 35.459C259.932 35.5736 260.154 35.681 260.426 35.7812C260.705 35.8743 261.049 35.9603 261.457 36.0391C262.295 36.2109 263.043 36.4365 263.702 36.7158C264.361 36.988 264.884 37.3604 265.271 37.833C265.657 38.2985 265.851 38.9108 265.851 39.6699C265.851 40.1855 265.736 40.6582 265.507 41.0879C265.278 41.5176 264.948 41.8936 264.519 42.2158C264.089 42.5309 263.573 42.778 262.972 42.957C262.377 43.1289 261.708 43.2148 260.963 43.2148C259.882 43.2148 258.965 43.0215 258.213 42.6348C257.468 42.248 256.902 41.7575 256.516 41.1631C256.136 40.5615 255.946 39.9456 255.946 39.3154H258.879C258.893 39.738 259.001 40.0781 259.201 40.3359C259.409 40.5938 259.67 40.7799 259.985 40.8945C260.308 41.0091 260.655 41.0664 261.027 41.0664C261.428 41.0664 261.761 41.0127 262.026 40.9053C262.291 40.7907 262.492 40.6403 262.628 40.4541C262.771 40.2607 262.843 40.0387 262.843 39.7881ZM272.661 40.7979C273.041 40.7979 273.377 40.7262 273.671 40.583C273.965 40.4326 274.194 40.2249 274.358 39.96C274.53 39.6878 274.62 39.3691 274.627 39.0039H277.538C277.531 39.8203 277.312 40.5472 276.883 41.1846C276.453 41.8148 275.877 42.3125 275.153 42.6777C274.43 43.0358 273.621 43.2148 272.726 43.2148C271.823 43.2148 271.035 43.0645 270.362 42.7637C269.696 42.4629 269.141 42.0475 268.697 41.5176C268.253 40.9805 267.92 40.3574 267.698 39.6484C267.476 38.9323 267.365 38.166 267.365 37.3496V37.0381C267.365 36.2145 267.476 35.4482 267.698 34.7393C267.92 34.0231 268.253 33.4001 268.697 32.8701C269.141 32.333 269.696 31.9141 270.362 31.6133C271.028 31.3125 271.809 31.1621 272.704 31.1621C273.657 31.1621 274.491 31.3447 275.207 31.71C275.93 32.0752 276.496 32.598 276.904 33.2783C277.32 33.9515 277.531 34.75 277.538 35.6738H274.627C274.62 35.2871 274.537 34.9362 274.38 34.6211C274.229 34.306 274.007 34.0553 273.714 33.8691C273.427 33.6758 273.073 33.5791 272.65 33.5791C272.199 33.5791 271.83 33.6758 271.544 33.8691C271.257 34.0553 271.035 34.3132 270.878 34.6426C270.72 34.9648 270.609 35.3337 270.545 35.749C270.488 36.1572 270.459 36.5869 270.459 37.0381V37.3496C270.459 37.8008 270.488 38.234 270.545 38.6494C270.602 39.0648 270.71 39.4336 270.867 39.7559C271.032 40.0781 271.257 40.3324 271.544 40.5186C271.83 40.7048 272.203 40.7979 272.661 40.7979ZM278.838 37.3066V37.0811C278.838 36.2288 278.96 35.4447 279.203 34.7285C279.447 34.0052 279.801 33.3786 280.267 32.8486C280.732 32.3187 281.305 31.9069 281.985 31.6133C282.666 31.3125 283.446 31.1621 284.327 31.1621C285.208 31.1621 285.992 31.3125 286.68 31.6133C287.367 31.9069 287.944 32.3187 288.409 32.8486C288.882 33.3786 289.24 34.0052 289.483 34.7285C289.727 35.4447 289.849 36.2288 289.849 37.0811V37.3066C289.849 38.1517 289.727 38.9359 289.483 39.6592C289.24 40.3753 288.882 41.002 288.409 41.5391C287.944 42.069 287.371 42.4808 286.69 42.7744C286.01 43.068 285.229 43.2148 284.349 43.2148C283.468 43.2148 282.684 43.068 281.996 42.7744C281.316 42.4808 280.739 42.069 280.267 41.5391C279.801 41.002 279.447 40.3753 279.203 39.6592C278.96 38.9359 278.838 38.1517 278.838 37.3066ZM281.932 37.0811V37.3066C281.932 37.7936 281.975 38.2484 282.061 38.6709C282.146 39.0934 282.283 39.4658 282.469 39.7881C282.662 40.1032 282.913 40.3503 283.221 40.5293C283.529 40.7083 283.905 40.7979 284.349 40.7979C284.778 40.7979 285.147 40.7083 285.455 40.5293C285.763 40.3503 286.01 40.1032 286.196 39.7881C286.382 39.4658 286.519 39.0934 286.604 38.6709C286.698 38.2484 286.744 37.7936 286.744 37.3066V37.0811C286.744 36.6084 286.698 36.1644 286.604 35.749C286.519 35.3265 286.379 34.9541 286.186 34.6318C285.999 34.3024 285.752 34.0446 285.444 33.8584C285.136 33.6722 284.764 33.5791 284.327 33.5791C283.89 33.5791 283.518 33.6722 283.21 33.8584C282.909 34.0446 282.662 34.3024 282.469 34.6318C282.283 34.9541 282.146 35.3265 282.061 35.749C281.975 36.1644 281.932 36.6084 281.932 37.0811ZM294.844 33.9121V43H291.75V31.377H294.661L294.844 33.9121ZM298.346 31.3018L298.292 34.1699C298.142 34.1484 297.959 34.1305 297.744 34.1162C297.536 34.0947 297.347 34.084 297.175 34.084C296.738 34.084 296.358 34.1413 296.036 34.2559C295.721 34.3633 295.456 34.5244 295.241 34.7393C295.034 34.9541 294.876 35.2155 294.769 35.5234C294.668 35.8314 294.611 36.1823 294.597 36.5762L293.974 36.3828C293.974 35.6309 294.049 34.9398 294.199 34.3096C294.35 33.6722 294.568 33.1172 294.854 32.6445C295.148 32.1719 295.506 31.8066 295.929 31.5488C296.351 31.291 296.835 31.1621 297.379 31.1621C297.551 31.1621 297.726 31.1764 297.905 31.2051C298.084 31.2266 298.231 31.2588 298.346 31.3018ZM306.456 40.4648V26.5H309.571V43H306.768L306.456 40.4648ZM299.108 37.3281V37.1025C299.108 36.2145 299.209 35.4089 299.409 34.6855C299.61 33.9551 299.903 33.3285 300.29 32.8057C300.677 32.2829 301.153 31.8783 301.719 31.5918C302.285 31.3053 302.929 31.1621 303.652 31.1621C304.333 31.1621 304.927 31.3053 305.436 31.5918C305.951 31.8783 306.388 32.2865 306.746 32.8164C307.111 33.3392 307.405 33.9587 307.627 34.6748C307.849 35.3838 308.01 36.1608 308.11 37.0059V37.5C308.01 38.3092 307.849 39.0612 307.627 39.7559C307.405 40.4505 307.111 41.0592 306.746 41.582C306.388 42.0977 305.951 42.4987 305.436 42.7852C304.92 43.0716 304.318 43.2148 303.631 43.2148C302.908 43.2148 302.263 43.068 301.697 42.7744C301.139 42.4808 300.666 42.069 300.279 41.5391C299.9 41.0091 299.61 40.3861 299.409 39.6699C299.209 38.9538 299.108 38.1732 299.108 37.3281ZM302.202 37.1025V37.3281C302.202 37.8079 302.238 38.2555 302.31 38.6709C302.388 39.0863 302.514 39.4551 302.686 39.7773C302.865 40.0924 303.094 40.3395 303.373 40.5186C303.66 40.6904 304.007 40.7764 304.415 40.7764C304.945 40.7764 305.382 40.6582 305.726 40.4219C306.069 40.1784 306.331 39.8454 306.51 39.4229C306.696 39.0003 306.803 38.5133 306.832 37.9619V36.5547C306.811 36.1035 306.746 35.6989 306.639 35.3408C306.538 34.9756 306.388 34.6641 306.188 34.4062C305.994 34.1484 305.751 33.9479 305.457 33.8047C305.171 33.6615 304.83 33.5898 304.437 33.5898C304.035 33.5898 303.692 33.6829 303.405 33.8691C303.119 34.0482 302.886 34.2952 302.707 34.6104C302.535 34.9255 302.406 35.2979 302.32 35.7275C302.242 36.1501 302.202 36.6084 302.202 37.1025Z" fill="white"/>
</svg>
