<svg width="501" height="102" viewBox="0 0 501 102" fill="none" xmlns="http://www.w3.org/2000/svg">
<path d="M37.8951 58.4566H83.202L104.728 24.28H69.5446L61.206 38.1342L52.216 24.28H15.7398L37.8951 58.4566Z" fill="#C80000"/>
<path d="M8.75802 13.51H45.2273L36.4606 0H0L8.75802 13.51Z" fill="#C80000"/>
<path d="M76.0269 13.51H111.512L120.021 0H84.1583L76.0269 13.51Z" fill="#C80000"/>
<path d="M129.586 24.28V58.4566H166.166V24.28H129.586Z" fill="#C80000"/>
<path d="M166.166 13.51H129.586V0H217.808C221.793 0 225.539 0.757106 229.045 2.27132C232.552 3.70583 235.58 5.73807 238.131 8.36801C239.719 9.90771 241.103 11.6217 242.284 13.51H196.664C196.58 13.5089 196.495 13.5084 196.41 13.5084H166.166V13.51Z" fill="#C80000"/>
<path d="M212.055 24.28C212.623 25.9303 212.907 27.7192 212.907 29.6467C212.907 34.269 211.233 38.0944 207.886 41.1228C204.619 44.0715 200.714 45.5459 196.171 45.5459H179.316L167.6 58.4566H217.808C221.793 58.4566 225.539 57.6596 229.045 56.0657C232.552 54.4718 235.58 52.32 238.131 49.6104C240.761 46.9007 242.833 43.7528 244.347 40.1665C245.861 36.5802 246.618 32.7548 246.618 28.6903C246.618 27.176 246.513 25.7059 246.303 24.28H212.055Z" fill="#C80000"/>
<path d="M253.626 24.28C253.381 25.8245 253.258 27.4142 253.258 29.049C253.258 33.1134 254.016 36.9388 255.53 40.5251C257.124 44.1114 259.236 47.2195 261.866 49.8495C264.575 52.4794 267.723 54.5913 271.31 56.1852C274.896 57.6994 278.721 58.4566 282.786 58.4566H359.532L371.247 45.5459H308.368C306.057 45.5459 303.905 45.1474 301.913 44.3505C299.92 43.4738 298.167 42.3182 296.653 40.8837C295.218 39.3695 294.063 37.6162 293.186 35.6238C292.309 33.6314 291.871 31.5195 291.871 29.288C291.871 27.4945 292.119 25.8251 292.616 24.28H253.626Z" fill="#C80000"/>
<path d="M306.921 24.28H353.664L343.753 35.7434H295.577L306.921 24.28Z" fill="#C80000"/>
<path d="M381.623 24.28H447.314V24.2672H482.547C487.647 24.2672 491.831 25.8213 495.099 28.9294C498.366 32.0375 500 36.1817 500 41.3619C500 46.5421 498.366 50.6863 495.099 53.7944C491.831 56.9025 487.647 58.4566 482.547 58.4566H381.652L393.248 45.5459H460.312C461.826 45.5459 462.942 45.0279 463.659 43.9918C464.376 42.9558 464.735 41.8401 464.735 40.6446C464.735 39.4492 464.376 38.3335 463.659 37.2974C462.942 36.2614 461.866 35.7434 460.431 35.7434H398.986C396.516 35.7434 394.165 35.3449 391.933 34.5479C389.702 33.751 387.749 32.5954 386.075 31.0812C384.402 29.567 383.087 27.734 382.131 25.5822C381.943 25.1604 381.774 24.7263 381.623 24.28Z" fill="#C80000"/>
<path d="M422.829 13.51H381.118C381.795 10.0236 383.288 7.15398 385.597 4.90127C388.865 1.63376 393.407 0 399.225 0H491.393L478.602 13.5084H423.014C422.952 13.5084 422.89 13.5089 422.829 13.51Z" fill="#C80000"/>
<path d="M308.11 13.51H257.772C258.958 11.6576 260.323 9.98347 261.866 8.48756C264.575 5.85761 267.723 3.78553 271.31 2.27132C274.896 0.757106 278.721 0 282.786 0H371.128L359.413 13.5084H308.368C308.282 13.5084 308.196 13.5089 308.11 13.51Z" fill="#C80000"/>
<path d="M170.627 90.82L167.118 80.67H163L168.51 95.17H172.773L178.283 80.67H174.165L170.627 90.82Z" fill="black"/>
<path d="M183.103 78.93C184.379 78.93 185.423 77.886 185.423 76.639C185.423 75.392 184.379 74.319 183.103 74.319C181.856 74.319 180.812 75.392 180.812 76.639C180.812 77.886 181.856 78.93 183.103 78.93ZM184.988 95.17V80.67H181.247V95.17H184.988Z" fill="black"/>
<path d="M193.313 80.67H189.572V95.17H193.313V88.239C193.313 86.847 193.748 85.861 194.647 85.252C195.546 84.643 196.59 84.411 197.721 84.556V80.38C195.749 80.38 194.009 81.308 193.313 83.164V80.67Z" fill="black"/>
<path d="M209.759 80.67H206.482V76.61L202.741 77.741V80.67H200.218V84.266H202.741V90.298C202.741 94.271 204.626 95.75 209.759 95.17V91.777C207.613 91.893 206.482 91.864 206.482 90.298V84.266H209.759V80.67Z" fill="black"/>
<path d="M223.354 88.5C223.354 90.907 222.107 92.096 220.164 92.096C218.424 92.096 217.293 91.052 217.293 89.109V80.67H213.552V89.573C213.552 91.458 214.074 92.908 215.089 93.981C216.133 95.054 217.438 95.576 219.033 95.576C221.005 95.576 222.455 94.909 223.354 93.546V95.17H227.095V80.67H223.354V88.5Z" fill="black"/>
<path d="M242.701 82.381C241.57 80.96 240.004 80.264 237.974 80.264C236.031 80.264 234.378 81.018 232.986 82.497C231.623 83.976 230.927 85.774 230.927 87.92C230.927 90.066 231.623 91.893 232.986 93.372C234.378 94.851 236.031 95.576 237.974 95.576C240.004 95.576 241.57 94.88 242.701 93.459V95.17H246.442V80.67H242.701V82.381ZM235.799 90.878C235.045 90.095 234.668 89.109 234.668 87.92C234.668 86.731 235.045 85.745 235.799 84.991C236.553 84.208 237.51 83.831 238.67 83.831C239.83 83.831 240.787 84.208 241.541 84.991C242.324 85.745 242.701 86.731 242.701 87.92C242.701 89.109 242.324 90.095 241.541 90.878C240.787 91.632 239.83 92.009 238.67 92.009C237.51 92.009 236.553 91.632 235.799 90.878Z" fill="black"/>
<path d="M254.735 95.17V74H250.994V95.17H254.735Z" fill="black"/>
<path d="M278.72 82.381C277.618 80.96 276.052 80.264 274.022 80.264C272.079 80.264 270.397 81.018 269.005 82.497C267.642 83.976 266.946 85.774 266.946 87.92C266.946 90.066 267.642 91.893 269.005 93.372C270.397 94.851 272.079 95.576 274.022 95.576C276.052 95.576 277.618 94.88 278.72 93.459V95.17H282.461V74.87H278.72V82.381ZM271.818 90.878C271.064 90.095 270.687 89.109 270.687 87.92C270.687 86.731 271.064 85.745 271.818 84.991C272.601 84.208 273.558 83.831 274.718 83.831C275.878 83.831 276.835 84.208 277.589 84.991C278.343 85.745 278.72 86.731 278.72 87.92C278.72 89.109 278.343 90.095 277.589 90.878C276.835 91.632 275.878 92.009 274.718 92.009C273.558 92.009 272.601 91.632 271.818 90.878Z" fill="black"/>
<path d="M290.784 80.67H287.043V95.17H290.784V88.239C290.784 86.847 291.219 85.861 292.118 85.252C293.017 84.643 294.061 84.411 295.192 84.556V80.38C293.22 80.38 291.48 81.308 290.784 83.164V80.67Z" fill="black"/>
<path d="M300.395 78.93C301.671 78.93 302.715 77.886 302.715 76.639C302.715 75.392 301.671 74.319 300.395 74.319C299.148 74.319 298.104 75.392 298.104 76.639C298.104 77.886 299.148 78.93 300.395 78.93ZM302.28 95.17V80.67H298.539V95.17H302.28Z" fill="black"/>
<path d="M312.867 90.82L309.358 80.67H305.24L310.75 95.17H315.013L320.523 80.67H316.405L312.867 90.82Z" fill="black"/>
<path d="M325.343 78.93C326.619 78.93 327.663 77.886 327.663 76.639C327.663 75.392 326.619 74.319 325.343 74.319C324.096 74.319 323.052 75.392 323.052 76.639C323.052 77.886 324.096 78.93 325.343 78.93ZM327.228 95.17V80.67H323.487V95.17H327.228Z" fill="black"/>
<path d="M339.874 80.264C337.902 80.264 336.452 80.931 335.553 82.294V80.67H331.812V95.17H335.553V87.34C335.553 84.933 336.8 83.744 338.743 83.744C340.483 83.744 341.614 84.788 341.614 86.731V95.17H345.355V86.267C345.355 84.382 344.833 82.932 343.789 81.859C342.774 80.786 341.469 80.264 339.874 80.264Z" fill="black"/>
<path d="M360.817 82.468C359.715 80.989 358.178 80.264 356.177 80.264C354.147 80.264 352.436 80.989 351.044 82.439C349.652 83.889 348.956 85.629 348.956 87.688C348.956 89.747 349.652 91.516 351.015 92.966C352.407 94.387 354.118 95.112 356.177 95.112C358.178 95.112 359.715 94.387 360.817 92.908V94.474C360.817 96.765 359.367 98.041 357.018 98.041C355.22 98.041 353.944 97.374 353.219 96.011L350.029 97.838C351.305 100.158 353.77 101.376 356.902 101.376C358.99 101.376 360.759 100.796 362.238 99.607C363.717 98.418 364.471 96.707 364.471 94.474V80.67H360.817V82.468ZM360.817 87.688C360.817 90.008 359.106 91.661 356.757 91.661C354.408 91.661 352.697 90.008 352.697 87.688C352.697 86.557 353.074 85.6 353.828 84.875C354.611 84.121 355.568 83.744 356.757 83.744C357.946 83.744 358.903 84.121 359.657 84.875C360.44 85.6 360.817 86.557 360.817 87.688Z" fill="black"/>
<path d="M391.527 89.457C391.614 88.906 391.672 88.413 391.672 87.92C391.672 85.745 390.976 83.947 389.584 82.468C388.221 80.989 386.452 80.264 384.335 80.264C382.102 80.264 380.246 80.989 378.825 82.468C377.404 83.918 376.679 85.745 376.679 87.92C376.679 90.124 377.404 91.951 378.854 93.401C380.304 94.851 382.218 95.576 384.625 95.576C387.409 95.576 389.526 94.532 390.947 92.473L387.931 90.733C387.206 91.69 386.104 92.183 384.683 92.183C382.45 92.183 381.087 91.284 380.594 89.457H391.527ZM380.536 86.557C380.971 84.701 382.334 83.628 384.335 83.628C386.046 83.628 387.496 84.585 387.931 86.557H380.536Z" fill="black"/>
<path d="M406.493 88.21V84.614H395.618V88.21H406.493Z" fill="black"/>
<path d="M414.696 84.788C414.696 84.063 415.421 83.599 416.378 83.599C417.451 83.599 418.234 84.092 418.698 85.078L421.888 83.338C420.757 81.366 418.727 80.264 416.378 80.264C414.812 80.264 413.507 80.67 412.434 81.511C411.39 82.323 410.868 83.454 410.868 84.875C410.868 87.891 413.565 88.79 415.711 89.341C417.19 89.718 418.35 90.153 418.35 90.936C418.35 91.777 417.683 92.183 416.349 92.183C414.87 92.183 413.942 91.545 413.507 90.298L410.259 92.125C411.332 94.416 413.362 95.576 416.349 95.576C418.002 95.576 419.394 95.17 420.496 94.387C421.627 93.575 422.178 92.415 422.178 90.936C422.207 87.833 419.452 86.818 417.335 86.383C415.856 86.006 414.696 85.571 414.696 84.788Z" fill="black"/>
<path d="M432.448 95.576C435.261 95.576 437.726 94.097 439.002 91.806L435.754 89.95C435.174 91.139 433.927 91.864 432.419 91.864C431.288 91.864 430.36 91.487 429.635 90.762C428.91 90.008 428.533 89.051 428.533 87.92C428.533 85.6 430.186 83.947 432.419 83.947C433.898 83.947 435.145 84.701 435.725 85.89L438.944 84.005C437.755 81.714 435.261 80.264 432.448 80.264C430.273 80.264 428.446 80.989 426.967 82.468C425.517 83.947 424.792 85.745 424.792 87.92C424.792 90.095 425.517 91.893 426.967 93.372C428.446 94.851 430.273 95.576 432.448 95.576Z" fill="black"/>
<path d="M450.202 80.264C448.23 80.264 446.78 80.931 445.881 82.294V74.87H442.14V95.17H445.881V87.34C445.881 84.933 447.128 83.744 449.071 83.744C450.811 83.744 451.942 84.788 451.942 86.731V95.17H455.683V86.267C455.683 84.382 455.161 82.932 454.117 81.859C453.102 80.786 451.797 80.264 450.202 80.264Z" fill="black"/>
<path d="M472.392 93.372C473.871 91.893 474.625 90.066 474.625 87.92C474.625 85.774 473.871 83.976 472.392 82.497C470.913 81.018 469.086 80.264 466.94 80.264C464.794 80.264 462.967 81.018 461.488 82.497C460.009 83.976 459.284 85.774 459.284 87.92C459.284 90.066 460.009 91.893 461.488 93.372C462.967 94.851 464.794 95.576 466.94 95.576C469.086 95.576 470.913 94.851 472.392 93.372ZM464.127 90.791C463.402 90.037 463.025 89.08 463.025 87.92C463.025 86.76 463.402 85.803 464.127 85.049C464.881 84.295 465.809 83.918 466.94 83.918C468.071 83.918 468.999 84.295 469.753 85.049C470.507 85.803 470.884 86.76 470.884 87.92C470.884 89.08 470.507 90.037 469.753 90.791C468.999 91.545 468.071 91.922 466.94 91.922C465.809 91.922 464.881 91.545 464.127 90.791Z" fill="black"/>
<path d="M490.77 93.372C492.249 91.893 493.003 90.066 493.003 87.92C493.003 85.774 492.249 83.976 490.77 82.497C489.291 81.018 487.464 80.264 485.318 80.264C483.172 80.264 481.345 81.018 479.866 82.497C478.387 83.976 477.662 85.774 477.662 87.92C477.662 90.066 478.387 91.893 479.866 93.372C481.345 94.851 483.172 95.576 485.318 95.576C487.464 95.576 489.291 94.851 490.77 93.372ZM482.505 90.791C481.78 90.037 481.403 89.08 481.403 87.92C481.403 86.76 481.78 85.803 482.505 85.049C483.259 84.295 484.187 83.918 485.318 83.918C486.449 83.918 487.377 84.295 488.131 85.049C488.885 85.803 489.262 86.76 489.262 87.92C489.262 89.08 488.885 90.037 488.131 90.791C487.377 91.545 486.449 91.922 485.318 91.922C484.187 91.922 483.259 91.545 482.505 90.791Z" fill="black"/>
<path d="M500.536 95.17V74H496.795V95.17H500.536Z" fill="black"/>
</svg>
