<svg width="197" height="45" viewBox="0 0 197 45" fill="none" xmlns="http://www.w3.org/2000/svg">
<path fill-rule="evenodd" clip-rule="evenodd" d="M14.9307 23.0319H32.7816L41.2577 9.57473H27.3955L24.1152 15.0249L20.5786 9.57473H6.20693L14.9307 23.0319ZM3.48076 5.36938H17.8497L14.3655 0H0L3.48076 5.36938ZM29.9266 5.36938H43.9064L47.2884 0H33.1584L29.9266 5.36938ZM51.0567 9.57473V23.0319H65.4693V9.57473H51.0567ZM65.4693 5.36938H51.0567V0H85.8165C87.3865 0 88.8623 0.2983 90.2439 0.894899C91.6255 1.4601 92.8187 2.2608 93.8235 3.297C94.4621 3.91624 95.0172 4.60703 95.4888 5.36938H78.2247C77.9519 5.33799 77.6721 5.3223 77.3856 5.3223H65.4693V5.36938ZM83.5525 9.57473C83.7744 10.2226 83.8854 10.9246 83.8854 11.6808C83.8854 13.502 83.226 15.0092 81.9072 16.2024C80.6198 17.3642 79.0812 17.9451 77.2914 17.9451H70.6503L66.0345 23.0319H85.8165C87.3865 23.0319 88.8623 22.7179 90.2439 22.0899C91.6255 21.4619 92.8187 20.6141 93.8235 19.5465C94.8597 18.4789 95.6761 17.2386 96.2727 15.8256C96.8693 14.4126 97.1676 12.9054 97.1676 11.304C97.1676 10.7103 97.1266 10.1339 97.0446 9.57473H83.5525ZM99.9273 9.57473C99.8317 10.1806 99.7838 10.8042 99.7838 11.4453C99.7838 13.0467 100.082 14.5539 100.679 15.9669C101.307 17.3799 102.139 18.6045 103.175 19.6407C104.243 20.6769 105.483 21.509 106.896 22.137C108.309 22.7336 109.816 23.0319 111.418 23.0319H141.656L146.272 17.9451H121.497C120.586 17.9451 119.739 17.7881 118.954 17.4741C118.169 17.1287 117.478 16.6734 116.881 16.1082C116.316 15.5116 115.861 14.8208 115.515 14.0358C115.17 13.2508 114.997 12.4187 114.997 11.5395C114.997 10.8361 115.094 10.1812 115.288 9.57473H99.9273ZM120.918 9.57473H139.336L135.439 14.0829H116.457L120.918 9.57473ZM150.362 9.57473H176.241V9.56129H190.123C192.133 9.56129 193.781 10.1736 195.069 11.3982C196.356 12.6228 197 14.2556 197 16.2966C197 18.3376 196.356 19.9704 195.069 21.195C193.781 22.4196 192.133 23.0319 190.123 23.0319H150.371L154.94 17.9451H181.363C181.959 17.9451 182.399 17.741 182.682 17.3328C182.964 16.9246 183.106 16.485 183.106 16.014C183.106 15.543 182.964 15.1034 182.682 14.6952C182.399 14.287 181.975 14.0829 181.41 14.0829H157.201C156.227 14.0829 155.301 13.9259 154.422 13.6119C153.542 13.2979 152.773 12.8426 152.114 12.246C151.454 11.6494 150.936 10.9272 150.559 10.0794C150.487 9.91585 150.421 9.74763 150.362 9.57473ZM166.082 5.36938H150.152C150.414 3.97474 151.005 2.82865 151.925 1.9311C153.213 0.6437 155.003 0 157.295 0H193.609L188.569 5.3223H166.668C166.458 5.3223 166.263 5.33799 166.082 5.36938ZM120.646 5.36938H101.533C102.007 4.62106 102.554 3.94596 103.175 3.3441C104.243 2.3079 105.483 1.4915 106.896 0.894899C108.309 0.2983 109.816 0 111.418 0H146.224L141.609 5.3223H121.497C121.207 5.3223 120.923 5.33799 120.646 5.36938Z" fill="#C80000"/>
<path d="M44.7628 40.654L42.9495 35.732H41.4211L43.9468 42.2083H45.5659L48.0916 35.732H46.5632L44.7628 40.654Z" fill="black"/>
<path d="M51.0757 34.5015C51.4384 34.1389 51.4384 33.5949 51.0887 33.2452C50.739 32.8825 50.1691 32.8825 49.8194 33.2452C49.4696 33.5949 49.4696 34.1389 49.8194 34.5015C50.182 34.8513 50.726 34.8513 51.0757 34.5015ZM51.1535 42.2083V35.732H49.7546V42.2083H51.1535Z" fill="black"/>
<path d="M54.9537 35.732H53.5548V42.2083H54.9537V38.9443C54.9537 38.2837 55.148 37.8044 55.5495 37.5195C55.951 37.2216 56.4173 37.092 56.9484 37.1309V35.6155C55.9769 35.6155 55.3034 36.017 54.9537 36.82V35.732Z" fill="black"/>
<path d="M62.5373 35.732H60.9312V33.9187L59.5323 34.3332V35.732H58.3407V37.0791H59.5323V40.1877C59.5323 41.8845 60.4001 42.4673 62.5373 42.2083V40.9519C61.4752 41.0037 60.9312 41.0166 60.9312 40.1877V37.0791H62.5373V35.732Z" fill="black"/>
<path d="M69.0114 39.2033C69.0114 40.4597 68.3508 41.0685 67.3664 41.0685C66.4727 41.0685 65.9158 40.5374 65.9158 39.566V35.732H64.5169V39.7084C64.5169 41.3664 65.5142 42.3767 67.0038 42.3767C67.9234 42.3767 68.584 42.0399 69.0114 41.3793V42.2083H70.4103V35.732H69.0114V39.2033Z" fill="black"/>
<path d="M77.9524 36.6517C77.4213 35.9263 76.6701 35.5637 75.6857 35.5637C74.792 35.5637 74.0407 35.8875 73.406 36.548C72.7714 37.2086 72.4605 38.0117 72.4605 38.9702C72.4605 39.9157 72.7714 40.7317 73.406 41.3923C74.0407 42.0528 74.792 42.3767 75.6857 42.3767C76.6701 42.3767 77.4213 42.014 77.9524 41.2757V42.2083H79.3512V35.732H77.9524V36.6517ZM74.4422 40.4597C74.0537 40.0582 73.8594 39.566 73.8594 38.9702C73.8594 38.3743 74.0537 37.8821 74.4422 37.4936C74.8308 37.092 75.323 36.8978 75.9059 36.8978C76.4887 36.8978 76.9809 37.092 77.3695 37.4936C77.7581 37.8821 77.9524 38.3743 77.9524 38.9702C77.9524 39.566 77.7581 40.0582 77.3695 40.4597C76.9809 40.8483 76.4887 41.0426 75.9059 41.0426C75.323 41.0426 74.8308 40.8483 74.4422 40.4597Z" fill="black"/>
<path d="M83.1577 42.2083V32.753H81.7589V42.2083H83.1577Z" fill="black"/>
<path d="M94.7036 36.6517C94.1725 35.9263 93.4213 35.5637 92.4369 35.5637C91.5432 35.5637 90.7919 35.8875 90.1572 36.548C89.5226 37.2086 89.2117 38.0117 89.2117 38.9702C89.2117 39.9157 89.5226 40.7317 90.1572 41.3923C90.7919 42.0528 91.5432 42.3767 92.4369 42.3767C93.4213 42.3767 94.1725 42.014 94.7036 41.2757V42.2083H96.1024V33.1415H94.7036V36.6517ZM91.1934 40.4597C90.8049 40.0582 90.6106 39.566 90.6106 38.9702C90.6106 38.3743 90.8049 37.8821 91.1934 37.4936C91.582 37.092 92.0742 36.8978 92.6571 36.8978C93.2399 36.8978 93.7321 37.092 94.1207 37.4936C94.5093 37.8821 94.7036 38.3743 94.7036 38.9702C94.7036 39.566 94.5093 40.0582 94.1207 40.4597C93.7321 40.8483 93.2399 41.0426 92.6571 41.0426C92.0742 41.0426 91.582 40.8483 91.1934 40.4597Z" fill="black"/>
<path d="M99.9089 35.732H98.5101V42.2083H99.9089V38.9443C99.9089 38.2837 100.103 37.8044 100.505 37.5195C100.906 37.2216 101.373 37.092 101.904 37.1309V35.6155C100.932 35.6155 100.259 36.017 99.9089 36.82V35.732Z" fill="black"/>
<path d="M105.036 34.5015C105.398 34.1389 105.398 33.5949 105.048 33.2452C104.699 32.8825 104.129 32.8825 103.779 33.2452C103.429 33.5949 103.429 34.1389 103.779 34.5015C104.142 34.8513 104.686 34.8513 105.036 34.5015ZM105.113 42.2083V35.732H103.714V42.2083H105.113Z" fill="black"/>
<path d="M110.105 40.654L108.292 35.732H106.763L109.289 42.2083H110.908L113.434 35.732H111.905L110.105 40.654Z" fill="black"/>
<path d="M116.418 34.5015C116.781 34.1389 116.781 33.5949 116.431 33.2452C116.081 32.8825 115.511 32.8825 115.162 33.2452C114.812 33.5949 114.812 34.1389 115.162 34.5015C115.524 34.8513 116.068 34.8513 116.418 34.5015ZM116.496 42.2083V35.732H115.097V42.2083H116.496Z" fill="black"/>
<path d="M122.304 35.5637C121.384 35.5637 120.723 35.9004 120.296 36.561V35.732H118.897V42.2083H120.296V38.737C120.296 37.4806 120.957 36.8719 121.941 36.8719C122.835 36.8719 123.392 37.4029 123.392 38.3743V42.2083H124.79V38.2319C124.79 36.5739 123.793 35.5637 122.304 35.5637Z" fill="black"/>
<path d="M132.229 36.6905C131.698 35.9393 130.947 35.5637 129.975 35.5637C129.056 35.5637 128.291 35.8875 127.657 36.548C127.022 37.1957 126.711 37.9858 126.711 38.9054C126.711 39.825 127.022 40.6151 127.657 41.2757C128.291 41.9233 129.056 42.2471 129.975 42.2471C130.947 42.2471 131.698 41.8715 132.229 41.1203V41.9104C132.229 43.0372 131.504 43.6978 130.299 43.6978C129.379 43.6978 128.745 43.361 128.408 42.7005L127.203 43.3999C127.76 44.4491 128.784 44.9672 130.273 44.9672C131.193 44.9672 131.983 44.7081 132.63 44.1771C133.278 43.646 133.602 42.8948 133.602 41.9104V35.732H132.229V36.6905ZM128.693 40.3561C128.304 39.9675 128.11 39.4883 128.11 38.9054C128.11 38.3225 128.304 37.8433 128.693 37.4547C129.094 37.0661 129.587 36.8719 130.17 36.8719C130.752 36.8719 131.245 37.0661 131.633 37.4547C132.035 37.8433 132.229 38.3225 132.229 38.9054C132.229 39.4883 132.035 39.9675 131.633 40.3561C131.245 40.7446 130.752 40.9389 130.17 40.9389C129.587 40.9389 129.094 40.7446 128.693 40.3561Z" fill="black"/>
<path d="M146.281 39.566C146.32 39.3199 146.333 39.1256 146.333 38.9831C146.333 38.0376 146.022 37.2216 145.413 36.561C144.804 35.9004 144.027 35.5637 143.082 35.5637C142.084 35.5637 141.255 35.8875 140.621 36.548C139.986 37.1957 139.662 37.9987 139.662 38.9702C139.662 39.9545 139.986 40.7706 140.634 41.4182C141.281 42.0528 142.136 42.3767 143.185 42.3767C144.442 42.3767 145.387 41.9104 146.022 40.9648L144.869 40.2913C144.493 40.8224 143.936 41.0944 143.198 41.0944C142.123 41.0944 141.333 40.5504 141.126 39.566H146.281ZM141.113 38.4261C141.307 37.4418 142.032 36.833 143.069 36.833C143.988 36.833 144.727 37.377 144.921 38.4261H141.113Z" fill="black"/>
<path d="M153.224 38.9443V37.5972H148.431V38.9443H153.224Z" fill="black"/>
<path d="M156.977 37.5195C156.977 37.0661 157.391 36.833 157.923 36.833C158.505 36.833 158.92 37.0791 159.14 37.5713L160.319 36.9107C159.865 36.0688 158.998 35.5637 157.923 35.5637C157.249 35.5637 156.679 35.745 156.226 36.1077C155.772 36.4703 155.552 36.9496 155.552 37.5454C155.526 38.9054 156.835 39.294 157.806 39.5401C158.492 39.7084 159.036 39.9545 159.036 40.369C159.036 40.8483 158.674 41.0944 157.935 41.0944C157.197 41.0944 156.718 40.7835 156.498 40.1618L155.293 40.8612C155.708 41.8068 156.653 42.3767 157.935 42.3767C158.661 42.3767 159.257 42.1953 159.736 41.8456C160.215 41.4959 160.461 41.0037 160.461 40.382C160.487 38.9961 159.192 38.5816 158.195 38.3614C157.521 38.1671 156.977 37.9469 156.977 37.5195Z" fill="black"/>
<path d="M165.36 42.3767C166.617 42.3767 167.718 41.729 168.275 40.6928L167.07 40.0064C166.759 40.6151 166.112 41.0037 165.347 41.0037C164.778 41.0037 164.298 40.8094 163.91 40.4208C163.534 40.0323 163.34 39.553 163.34 38.9702C163.34 38.3873 163.534 37.9081 163.91 37.5195C164.298 37.1309 164.778 36.9366 165.347 36.9366C166.125 36.9366 166.746 37.3122 167.044 37.934L168.249 37.2345C167.731 36.2113 166.617 35.5637 165.36 35.5637C164.389 35.5637 163.573 35.8875 162.912 36.548C162.265 37.1957 161.941 37.9987 161.941 38.9702C161.941 39.9286 162.265 40.7317 162.912 41.3923C163.573 42.0528 164.389 42.3767 165.36 42.3767Z" fill="black"/>
<path d="M173.469 35.5637C172.55 35.5637 171.889 35.9004 171.462 36.561V33.1415H170.063V42.2083H171.462V38.737C171.462 37.4806 172.122 36.8719 173.107 36.8719C174.001 36.8719 174.557 37.4029 174.557 38.3743V42.2083H175.956V38.2319C175.956 36.5739 174.959 35.5637 173.469 35.5637Z" fill="black"/>
<path d="M181.297 42.3767C182.255 42.3767 183.058 42.0528 183.719 41.3923C184.379 40.7317 184.716 39.9286 184.716 38.9702C184.716 38.0117 184.379 37.2086 183.719 36.548C183.058 35.8875 182.255 35.5637 181.297 35.5637C180.351 35.5637 179.535 35.8875 178.874 36.548C178.214 37.2086 177.877 38.0117 177.877 38.9702C177.877 39.9286 178.214 40.7317 178.874 41.3923C179.535 42.0528 180.351 42.3767 181.297 42.3767ZM179.859 40.4338C179.47 40.0452 179.276 39.553 179.276 38.9702C179.276 38.3873 179.47 37.8951 179.859 37.5065C180.247 37.1179 180.727 36.9237 181.297 36.9237C181.866 36.9237 182.346 37.1179 182.734 37.5065C183.123 37.8951 183.317 38.3873 183.317 38.9702C183.317 39.553 183.123 40.0452 182.734 40.4338C182.346 40.8224 181.866 41.0166 181.297 41.0166C180.727 41.0166 180.247 40.8224 179.859 40.4338Z" fill="black"/>
<path d="M189.815 42.3767C190.773 42.3767 191.576 42.0528 192.237 41.3923C192.897 40.7317 193.234 39.9286 193.234 38.9702C193.234 38.0117 192.897 37.2086 192.237 36.548C191.576 35.8875 190.773 35.5637 189.815 35.5637C188.869 35.5637 188.053 35.8875 187.393 36.548C186.732 37.2086 186.395 38.0117 186.395 38.9702C186.395 39.9286 186.732 40.7317 187.393 41.3923C188.053 42.0528 188.869 42.3767 189.815 42.3767ZM188.377 40.4338C187.988 40.0452 187.794 39.553 187.794 38.9702C187.794 38.3873 187.988 37.8951 188.377 37.5065C188.766 37.1179 189.245 36.9237 189.815 36.9237C190.385 36.9237 190.864 37.1179 191.253 37.5065C191.641 37.8951 191.835 38.3873 191.835 38.9702C191.835 39.553 191.641 40.0452 191.253 40.4338C190.864 40.8224 190.385 41.0166 189.815 41.0166C189.245 41.0166 188.766 40.8224 188.377 40.4338Z" fill="black"/>
<path d="M196.675 42.2083V32.753H195.276V42.2083H196.675Z" fill="black"/>
</svg>
