<svg width="28" height="28" viewBox="0 0 28 28" fill="none" xmlns="http://www.w3.org/2000/svg">
<path fill-rule="evenodd" clip-rule="evenodd" d="M16.9107 22.1786C23.0351 22.1786 28 17.2137 28 11.0893C28 4.96484 23.0351 0 16.9107 0C10.7863 0 5.82141 4.96484 5.82141 11.0893C5.82141 17.2137 10.7863 22.1786 16.9107 22.1786ZM16.9107 20.25C21.97 20.25 26.0714 16.1486 26.0714 11.0893C26.0714 6.02996 21.97 1.92857 16.9107 1.92857C11.8514 1.92857 7.75 6.02996 7.75 11.0893C7.75 16.1486 11.8514 20.25 16.9107 20.25Z" fill="black"/>
<line x1="1.07433" y1="26.552" x2="9.2306" y2="19.2114" stroke="black" stroke-width="2" stroke-linecap="round"/>
<path d="M10.6428 9.16072C12.8367 5.33655 14.7871 4.40645 19.3214 4.33929" stroke="#FD1E2A" stroke-width="2" stroke-linecap="round"/>
</svg>
