<svg width="28" height="15" viewBox="0 0 28 15" fill="none" xmlns="http://www.w3.org/2000/svg">
<path d="M19.9537 0.304182C19.8599 0.399779 19.7855 0.513515 19.7347 0.638828C19.6839 0.764141 19.6577 0.898551 19.6577 1.0343C19.6577 1.17006 19.6839 1.30447 19.7347 1.42978C19.7855 1.55509 19.8599 1.66883 19.9537 1.76443L24.5569 6.4948H1.00069C0.735289 6.4948 0.48076 6.60314 0.293095 6.79599C0.105429 6.98884 0 7.25041 0 7.52314C0 7.79587 0.105429 8.05744 0.293095 8.25029C0.48076 8.44314 0.735289 8.55148 1.00069 8.55148H24.5369L19.9537 13.251C19.7673 13.4437 19.6627 13.7043 19.6627 13.976C19.6627 14.2477 19.7673 14.5083 19.9537 14.701C20.1412 14.8925 20.3948 15 20.6592 15C20.9236 15 21.1772 14.8925 21.3647 14.701L27.7291 8.16071C27.8147 8.07625 27.8829 7.97487 27.9294 7.86266C27.976 7.75044 28 7.62971 28 7.50771C28 7.38572 27.976 7.26499 27.9294 7.15278C27.8829 7.04056 27.8147 6.93918 27.7291 6.85472L21.3747 0.304182C21.2817 0.207797 21.171 0.131294 21.049 0.0790868C20.9271 0.0268793 20.7963 0 20.6642 0C20.5321 0 20.4013 0.0268793 20.2794 0.0790868C20.1574 0.131294 20.0467 0.207797 19.9537 0.304182Z" fill="black"/>
</svg>
