<svg width="28" height="15" viewBox="0 0 28 15" fill="none" xmlns="http://www.w3.org/2000/svg">
<g opacity="0.3">
<path d="M8.04629 0.304182C8.14008 0.399779 8.21453 0.513515 8.26533 0.638828C8.31613 0.764141 8.34229 0.898551 8.34229 1.0343C8.34229 1.17006 8.31613 1.30447 8.26533 1.42978C8.21453 1.55509 8.14008 1.66883 8.04629 1.76443L3.44312 6.4948H26.9993C27.2647 6.4948 27.5192 6.60314 27.7069 6.79599C27.8946 6.98884 28 7.25041 28 7.52314C28 7.79587 27.8946 8.05744 27.7069 8.25029C27.5192 8.44314 27.2647 8.55148 26.9993 8.55148H3.46314L8.04629 13.251C8.23267 13.4437 8.33728 13.7043 8.33728 13.976C8.33728 14.2477 8.23267 14.5083 8.04629 14.701C7.8588 14.8925 7.60517 15 7.3408 15C7.07644 15 6.82281 14.8925 6.63532 14.701L0.270943 8.16071C0.185282 8.07625 0.117123 7.97487 0.0705624 7.86266C0.0240002 7.75044 -1.90735e-06 7.62971 -1.90735e-06 7.50771C-1.90735e-06 7.38572 0.0240002 7.26499 0.0705624 7.15278C0.117123 7.04056 0.185282 6.93918 0.270943 6.85472L6.62531 0.304182C6.71834 0.207797 6.82901 0.131294 6.95096 0.0790868C7.0729 0.0268793 7.2037 0 7.3358 0C7.4679 0 7.5987 0.0268793 7.72064 0.0790868C7.84258 0.131294 7.95326 0.207797 8.04629 0.304182Z" fill="black"/>
</g>
</svg>
