<svg width="28" height="28" viewBox="0 0 28 28" fill="none" xmlns="http://www.w3.org/2000/svg">
<path d="M20.0393 10.1074C21.8399 11.3991 24.0456 12.1591 26.428 12.1591V7.55839C25.9771 7.55848 25.5274 7.5113 25.0863 7.41751V11.0389C22.7042 11.0389 20.4987 10.2789 18.6976 8.98731V18.376C18.6976 23.0727 14.9037 26.8799 10.224 26.8799C8.47784 26.8799 6.85489 26.3501 5.50671 25.4416C7.04544 27.0205 9.19131 28 11.5654 28C16.2454 28 20.0395 24.1928 20.0395 19.4959V10.1074H20.0393ZM21.6944 5.46584C20.7742 4.45694 20.17 3.15313 20.0393 1.71171V1.11996H18.7678C19.0879 2.95201 20.1795 4.51719 21.6944 5.46584ZM8.46664 21.8374C7.95252 21.1609 7.67469 20.3334 7.67594 19.4825C7.67594 17.3344 9.41124 15.5927 11.5521 15.5927C11.9511 15.5926 12.3477 15.6539 12.728 15.7749V11.0714C12.2836 11.0103 11.8351 10.9843 11.3869 10.9939V14.6549C11.0063 14.5338 10.6096 14.4723 10.2105 14.4727C8.06957 14.4727 6.33436 16.2142 6.33436 18.3626C6.33436 19.8816 7.20172 21.1968 8.46664 21.8374Z" fill="#FF004F"/>
<path d="M18.6975 8.98722C20.4986 10.2788 22.7041 11.0388 25.0863 11.0388V7.41742C23.7566 7.13317 22.5794 6.43581 21.6943 5.46584C20.1793 4.5171 19.0878 2.95191 18.7678 1.11996H15.4281V19.4957C15.4205 21.638 13.6882 23.3726 11.5519 23.3726C10.293 23.3726 9.1746 22.7703 8.46629 21.8374C7.20147 21.1968 6.3341 19.8815 6.3341 18.3627C6.3341 16.2145 8.06931 14.4728 10.2102 14.4728C10.6204 14.4728 11.0158 14.5369 11.3866 14.655V10.994C6.78908 11.0893 3.09155 14.8593 3.09155 19.4958C3.09155 21.8104 4.01232 23.9086 5.50674 25.4417C6.85492 26.3501 8.47787 26.88 10.224 26.88C14.9038 26.88 18.6976 23.0726 18.6976 18.376V8.98722H18.6975Z" fill="black"/>
<path d="M25.0863 7.41743V6.43823C23.8872 6.44006 22.7117 6.10305 21.6944 5.46576C22.5949 6.45524 23.7808 7.13751 25.0863 7.41743ZM18.7678 1.11998C18.7373 0.944897 18.7138 0.768659 18.6976 0.59175V0H14.0864V18.3759C14.079 20.5179 12.3467 22.2525 10.2102 22.2525C9.583 22.2525 8.99078 22.1031 8.46632 21.8376C9.17463 22.7703 10.293 23.3725 11.5519 23.3725C13.688 23.3725 15.4207 21.6381 15.4281 19.4958V1.11998H18.7678ZM11.3868 10.994V9.95154C11.0015 9.89869 10.6131 9.87217 10.2241 9.87236C5.5439 9.87226 1.75 13.6796 1.75 18.3759C1.75 21.3203 3.24107 23.9151 5.50686 25.4415C4.01244 23.9085 3.09168 21.8102 3.09168 19.4957C3.09168 14.8593 6.78911 11.0893 11.3868 10.994Z" fill="#00F2EA"/>
</svg>
